<?xml version="1.0" standalone="no"?>
<!DOCTYPE svg PUBLIC "-//W3C//DTD SVG 20010904//EN"
 "http://www.w3.org/TR/2001/REC-SVG-20010904/DTD/svg10.dtd">
<svg version="1.0" xmlns="http://www.w3.org/2000/svg"
 width="461.000000pt" height="876.000000pt" viewBox="0 0 461.000000 876.000000"
 preserveAspectRatio="xMidYMid meet">
<metadata>
Created by potrace 1.16, written by Peter Selinger 2001-2019
</metadata>
<g transform="translate(0.000000,876.000000) scale(0.100000,-0.100000)"
fill="#000000" stroke="none">
<path d="M2343 8743 c0 -36 -4 -42 -55 -74 -93 -59 -169 -129 -232 -213 -38
-50 -105 -115 -119 -116 -4 0 -20 -26 -35 -59 -29 -64 -130 -180 -150 -173
-15 5 -16 42 -1 42 5 0 7 5 4 10 -3 6 0 10 7 10 9 0 9 3 -2 10 -8 5 -10 10 -4
10 19 0 24 38 5 45 -9 3 -18 6 -20 5 -2 -1 -7 3 -11 9 -4 7 -21 -2 -46 -24
-21 -19 -35 -35 -30 -35 5 0 -4 -10 -20 -22 -16 -12 -31 -25 -34 -29 -11 -15
-50 -20 -50 -7 0 26 -19 40 -64 49 -42 8 -50 6 -88 -20 -24 -16 -46 -27 -50
-25 -8 5 -12 -11 -9 -30 1 -4 -2 -13 -7 -20 -5 -6 -10 -45 -11 -86 -1 -45 -7
-77 -14 -82 -7 -4 -7 -8 -2 -8 6 0 -1 -7 -15 -14 -14 -8 -28 -12 -33 -9 -4 2
-14 -1 -22 -7 -8 -6 -22 -9 -33 -6 -13 4 -32 -6 -61 -32 -39 -35 -44 -44 -48
-96 -3 -31 -1 -64 3 -74 9 -22 11 -29 13 -48 0 -8 5 -12 11 -9 6 4 7 -1 3 -12
-12 -34 -35 -63 -49 -63 -8 0 -14 -7 -14 -16 0 -8 -4 -12 -10 -9 -6 3 -10 -4
-10 -18 0 -14 -7 -30 -15 -37 -21 -18 -12 -111 14 -148 11 -15 22 -38 25 -52
2 -14 8 -36 14 -50 5 -14 7 -30 5 -37 -3 -7 5 -22 16 -35 12 -12 21 -28 21
-35 0 -8 4 -12 9 -9 5 3 12 -5 15 -19 4 -14 12 -25 20 -25 7 0 23 -9 36 -20
23 -20 33 -23 60 -21 9 1 21 -12 27 -30 11 -29 10 -33 -23 -66 -33 -33 -35
-39 -29 -79 3 -24 9 -43 13 -43 20 3 51 -16 63 -37 7 -14 19 -22 26 -19 8 3
11 0 7 -6 -7 -12 53 -68 74 -69 6 0 12 -5 12 -11 0 -6 7 -9 15 -6 8 4 17 2 19
-2 5 -7 41 -8 150 -2 16 1 16 3 5 17 -11 13 -11 15 2 14 28 -4 39 0 39 15 0
10 10 15 26 15 22 0 25 2 14 15 -10 12 -10 15 0 15 6 0 20 10 29 22 10 11 22
19 27 15 11 -6 10 -204 -1 -297 -3 -30 -21 -116 -40 -190 -63 -248 -85 -403
-85 -596 0 -50 -5 -85 -12 -92 -8 -8 -13 -43 -13 -91 0 -63 4 -83 19 -99 16
-19 17 -27 6 -91 -9 -52 -9 -88 0 -143 12 -79 2 -179 -24 -253 -16 -45 -11
-88 14 -125 9 -14 29 -50 44 -80 l28 -55 -46 -148 c-25 -81 -51 -156 -58 -166
-6 -11 -26 -22 -44 -25 -17 -4 -38 -14 -47 -24 -53 -58 -185 -398 -231 -592
-41 -174 -48 -212 -53 -297 -5 -81 -3 -96 16 -133 27 -53 72 -94 136 -125 43
-21 73 -25 215 -34 91 -5 178 -7 194 -4 25 5 27 3 22 -15 -26 -80 -51 -188
-86 -364 -22 -112 -52 -261 -66 -331 -26 -122 -26 -130 -11 -163 9 -19 21 -34
27 -34 13 0 13 -101 -1 -175 -11 -58 -45 -130 -82 -170 -24 -26 -26 -39 -29
-182 -2 -67 -5 -124 -8 -127 -3 -2 -82 -10 -175 -16 -558 -37 -948 -103 -1035
-176 -29 -25 -30 -29 -30 -109 l0 -83 -87 -27 c-103 -32 -156 -58 -189 -90
l-24 -24 0 -262 c0 -247 1 -265 21 -307 79 -162 486 -304 1099 -381 628 -80
1533 -86 2200 -15 686 72 1154 214 1260 381 l30 47 0 266 c0 225 -2 269 -16
288 -21 30 -89 64 -196 97 l-88 27 0 78 c0 43 -3 86 -6 95 -26 67 -344 135
-851 181 l-73 6 0 89 c0 84 1 90 23 98 33 13 366 248 410 290 21 20 52 65 69
99 28 57 32 76 36 173 l5 109 113 0 c63 0 114 3 114 7 0 4 -21 29 -47 56 l-48
49 48 43 c26 24 47 46 47 49 0 3 -47 6 -105 6 l-105 0 0 33 c0 18 -4 37 -9 42
-5 6 -11 65 -13 132 -2 103 -6 126 -23 150 -15 20 -95 65 -285 159 -146 73
-282 135 -302 139 -29 5 -52 0 -119 -29 -45 -20 -85 -36 -87 -36 -6 0 5 113
23 225 8 50 21 144 30 210 15 114 28 188 76 448 33 181 47 254 74 391 64 325
91 639 74 865 -6 74 -11 139 -12 144 -1 6 8 16 21 22 12 7 25 14 27 17 9 9
-53 166 -117 298 -98 204 -128 259 -206 384 -41 65 -78 132 -83 150 -11 38
-11 134 1 161 7 18 9 18 19 -9 30 -75 183 -243 267 -292 48 -28 104 -35 127
-16 8 7 31 52 52 100 20 48 40 96 45 107 52 123 150 394 150 416 0 8 -15 37
-34 63 -30 42 -33 52 -25 84 24 106 33 122 122 211 62 63 86 93 81 105 -3 9 1
28 11 42 12 19 18 55 21 139 l4 114 -35 -6 -35 -6 0 64 c-1 104 -44 175 -134
219 -148 71 -330 -60 -313 -226 10 -97 79 -193 157 -221 28 -10 50 -23 50 -28
0 -6 -11 -26 -24 -44 -32 -44 -45 -107 -44 -215 1 -78 -1 -91 -19 -105 -29
-23 -51 -69 -69 -148 -13 -58 -78 -213 -88 -213 -9 0 -85 140 -106 195 -13 33
-27 65 -31 70 -3 6 -18 55 -33 110 -83 301 -109 354 -178 356 -18 1 -44 4 -57
8 -23 6 -23 7 13 26 35 19 47 35 26 35 -6 0 1 12 14 27 35 38 56 105 56 179 0
35 5 66 11 70 6 3 8 18 5 33 -5 18 -4 22 3 12 12 -18 21 47 20 134 -1 76 1 87
12 50 7 -27 8 -26 5 11 -2 22 1 49 6 59 7 12 7 20 -2 25 -9 6 -11 21 -6 50 3
23 3 39 -2 36 -11 -6 -36 122 -37 181 0 24 -3 36 -8 30 -5 -7 -7 -3 -4 11 3
12 1 22 -5 22 -6 0 -7 7 -4 16 3 8 2 12 -4 9 -6 -3 -10 0 -10 7 0 7 -25 40
-55 73 -30 33 -55 67 -55 77 0 10 -6 15 -12 13 -7 -3 -35 18 -63 46 -51 52
-97 79 -136 79 -13 0 -23 8 -26 21 -4 16 -8 17 -14 7 -6 -9 -9 -5 -9 14 0 14
6 29 13 31 6 3 -54 6 -134 6 -133 1 -146 -1 -146 -16z m-222 -2055 c24 -30 24
-36 -2 -40 -12 -2 -27 -11 -33 -20 -19 -31 15 -55 122 -83 23 -7 85 -83 115
-142 23 -44 24 -165 2 -223 -19 -49 -20 -52 -98 -225 -58 -128 -76 -176 -102
-270 -9 -33 -30 -99 -46 -147 -16 -48 -26 -93 -23 -102 3 -8 26 -23 50 -33 24
-10 44 -22 44 -28 0 -5 -9 -60 -19 -120 -19 -103 -27 -216 -52 -715 -17 -346
-57 -639 -58 -432 -1 48 3 82 9 82 15 0 12 37 -4 53 -17 17 -53 141 -90 307
-33 153 -38 200 -20 193 9 -3 14 1 14 12 0 9 -4 14 -9 11 -15 -10 -22 23 -30
144 -8 112 -17 144 -60 218 -50 86 -48 232 4 252 36 14 44 38 50 146 3 55 10
126 15 159 27 173 54 329 76 433 14 64 31 158 39 207 8 50 28 155 45 235 16
79 30 145 30 147 0 9 14 0 31 -19z m660 -2264 c21 -239 -17 -867 -71 -1169
-37 -207 -40 -236 -47 -413 -5 -132 -9 -175 -20 -179 -7 -3 -13 -20 -13 -39
l0 -34 -107 0 -107 0 49 -50 49 -50 -47 -48 c-26 -26 -47 -51 -47 -55 0 -4 54
-7 119 -7 l119 0 4 -117 c3 -84 8 -127 20 -148 25 -46 7 -120 -39 -163 -45
-42 -103 -139 -103 -172 0 -14 13 -57 30 -95 16 -39 30 -82 30 -96 l0 -26
-397 -5 c-219 -3 -400 -4 -403 -1 -10 9 -4 220 8 308 33 235 44 272 82 280 39
9 44 17 70 125 12 52 28 113 35 135 7 22 29 90 48 150 63 198 208 646 267 825
51 153 81 252 110 365 4 17 30 111 58 210 28 99 67 239 87 310 34 120 110 363
139 445 7 19 22 69 32 110 l19 75 7 -165 c3 -91 12 -228 19 -306z m-1013 183
c28 -33 55 -298 32 -312 -5 -3 -20 1 -32 9 -30 21 -50 20 -82 -5 -40 -32 -42
-6 -8 108 17 54 37 124 46 156 17 58 25 67 44 44z m1272 -2814 c47 -33 100
-68 118 -77 l32 -17 0 -82 0 -82 -107 3 c-60 2 -126 7 -148 11 l-40 6 -16 80
c-9 44 -20 88 -24 98 -4 9 -4 56 0 102 l7 85 46 -33 c26 -18 85 -61 132 -94z"/>
</g>
</svg>
